<?xml version="1.0" standalone="no"?>
<!DOCTYPE svg PUBLIC "-//W3C//DTD SVG 20010904//EN"
 "http://www.w3.org/TR/2001/REC-SVG-20010904/DTD/svg10.dtd">
<svg version="1.0" xmlns="http://www.w3.org/2000/svg"
 width="200.000000pt" height="200.000000pt" viewBox="0 0 200.000000 200.000000"
 preserveAspectRatio="xMidYMid meet">

<g transform="translate(0.000000,200.000000) scale(0.100000,-0.100000)"
fill="#000000" stroke="none">
<path d="M627 1868 c-7 -4 165 -8 381 -8 276 0 392 -3 392 -11 0 -6 -24 -38
-54 -71 -53 -60 -54 -61 -59 -137 l-5 -76 47 -40 c75 -64 140 -137 164 -185
33 -67 31 -185 -4 -260 -32 -69 -103 -147 -174 -195 -54 -35 -75 -38 -75 -10
0 8 -7 35 -16 61 -13 40 -14 48 -1 62 56 65 69 184 29 262 -21 39 -23 53 -17
110 4 36 9 76 12 89 6 23 4 24 -33 18 -21 -4 -64 -24 -94 -44 -52 -36 -59 -38
-127 -37 -61 1 -78 5 -105 26 -45 34 -93 58 -118 58 -24 0 -24 2 -6 -93 14
-72 14 -75 -9 -123 -14 -27 -25 -66 -25 -87 0 -38 48 -177 62 -177 11 0 -2 59
-20 95 -23 44 -20 112 8 167 19 38 21 52 13 75 -6 15 -11 49 -12 75 l-2 47 33
-16 c18 -9 50 -31 71 -50 23 -20 45 -32 55 -29 50 14 81 16 107 6 25 -9 32 -7
55 15 25 24 96 65 112 65 12 0 10 -98 -2 -105 -16 -10 -12 -41 10 -78 42 -72
35 -186 -15 -246 -25 -29 -25 -29 -72 -15 -47 14 -201 17 -258 5 -23 -5 -31
-12 -33 -34 -3 -23 2 -30 33 -43 58 -24 199 -22 257 4 35 16 49 18 56 9 15
-19 42 -112 33 -115 -4 -1 -48 -29 -98 -61 -139 -90 -178 -155 -171 -285 3
-67 6 -76 49 -136 94 -132 102 -173 51 -269 l-32 -61 46 0 c102 0 217 90 277
218 52 111 43 230 -34 423 -20 52 -40 111 -44 131 -6 34 -5 36 47 69 82 52
157 128 189 191 23 45 31 77 35 145 9 119 -9 157 -133 283 l-93 95 0 62 0 62
70 82 c38 46 68 84 66 87 -8 7 -808 7 -819 0z m491 -884 c12 -3 22 -10 22 -14
0 -13 -85 -30 -150 -30 -54 0 -130 20 -130 34 0 22 189 30 258 10z m142 -264
c67 -181 80 -222 91 -288 12 -72 7 -95 -39 -202 -33 -75 -130 -157 -219 -184
-29 -9 -30 11 -3 61 11 21 20 49 20 63 -1 36 -42 132 -77 177 -47 59 -63 98
-63 151 0 74 26 136 76 184 40 38 174 131 181 125 1 -2 16 -41 33 -87z"/>
<path d="M600 1841 c0 -5 46 -45 103 -89 56 -44 163 -128 237 -186 74 -58 138
-105 142 -104 9 4 148 181 148 189 0 4 -109 43 -242 87 -249 83 -253 88 -39
46 69 -13 132 -24 140 -23 24 1 -349 78 -383 79 -24 0 -26 -2 -16 -14 6 -8 33
-22 58 -30 26 -8 140 -44 254 -81 l208 -66 -62 -77 c-34 -42 -67 -76 -74 -76
-13 2 -68 44 -317 241 -138 110 -157 122 -157 104z"/>
<path d="M1118 1753 c6 -2 18 -2 25 0 6 3 1 5 -13 5 -14 0 -19 -2 -12 -5z"/>
<path d="M1178 1743 c7 -3 16 -2 19 1 4 3 -2 6 -13 5 -11 0 -14 -3 -6 -6z"/>
<path d="M789 930 c-4 -36 -23 -113 -43 -170 -21 -58 -49 -136 -62 -175 -16
-44 -26 -99 -29 -150 l-4 -80 9 73 c12 89 44 204 72 252 11 19 22 43 24 54 2
11 13 48 24 82 14 42 20 81 18 121 l-3 58 -6 -65z"/>
<path d="M661 304 c0 -11 3 -14 6 -6 3 7 2 16 -1 19 -3 4 -6 -2 -5 -13z"/>
<path d="M700 200 c6 -11 13 -20 16 -20 2 0 0 9 -6 20 -6 11 -13 20 -16 20 -2
0 0 -9 6 -20z"/>
<path d="M750 126 c0 -2 8 -10 18 -17 15 -13 16 -12 3 4 -13 16 -21 21 -21 13z"/>
</g>
</svg>
